<svg width="55" height="36" viewBox="0 0 55 36" fill="none" xmlns="http://www.w3.org/2000/svg">
<circle cx="37.5" cy="17.5" r="16.5" transform="rotate(90 37.5 17.5)" stroke="white" stroke-width="2"/>
<path d="M20.7961 18.0365C20.7961 13.9392 21.7118 10.7266 23.5432 8.39859C25.4056 6.07059 27.2214 4.90659 28.9907 4.90659C29.5494 4.90659 29.9995 5.06179 30.3409 5.37219C30.6823 5.68259 30.8531 6.11715 30.8531 6.67587C30.822 7.26563 30.5116 7.77779 29.9219 8.21235C29.3631 8.67795 28.6803 9.11251 27.8732 9.51602C27.0662 9.95058 26.2592 10.4627 25.4521 11.0525C24.6761 11.6423 24.0088 12.5424 23.45 13.753C22.8913 14.9946 22.612 16.4845 22.612 18.2227C22.612 20.4266 23.1862 22.2114 24.3347 23.5771C25.5142 24.9739 27.0196 25.6723 28.851 25.6723C30.403 25.6723 31.6756 25.2998 32.6689 24.5549C33.6622 23.841 34.3761 22.8942 34.8107 21.7147C35.2763 20.5662 35.6487 19.2781 35.9281 17.8503C36.2075 16.4535 36.5179 15.0411 36.8593 13.6133C37.2007 12.1855 37.6508 10.8818 38.2095 9.70227C38.7993 8.55379 39.715 7.60707 40.9566 6.86211C42.1982 6.14819 43.7657 5.79123 45.6591 5.79123C48.3286 5.79123 50.5014 6.81555 52.1775 8.86419C53.8847 10.9439 54.7383 13.784 54.7383 17.3847C54.7383 21.0474 53.9313 23.9651 52.3172 26.1379C50.7031 28.3418 48.9804 29.4437 47.149 29.4437C45.9074 29.4437 45.2866 28.8074 45.2866 27.5347C45.2866 26.9139 45.5505 26.3862 46.0782 25.9517C46.6058 25.5482 47.2422 25.1757 47.9871 24.8342C48.7321 24.4928 49.477 24.0738 50.222 23.5771C50.967 23.0805 51.6033 22.289 52.131 21.2026C52.6586 20.1472 52.9225 18.828 52.9225 17.245C52.9225 14.9791 52.3327 13.2098 51.1532 11.9371C49.9737 10.6645 48.4682 10.0282 46.6369 10.0282C45.178 10.0282 43.983 10.3851 43.0518 11.0991C42.1206 11.844 41.4377 12.8063 41.0031 13.9858C40.5686 15.1653 40.1961 16.4535 39.8857 17.8503C39.6063 19.2781 39.2804 20.6904 38.9079 22.0872C38.5355 23.515 38.0388 24.8187 37.418 25.9982C36.8283 27.1778 35.8815 28.1245 34.5779 28.8384C33.3052 29.5834 31.7222 29.9558 29.8287 29.9558C27.0972 29.9558 24.9089 28.8074 23.2638 26.5104C21.6187 24.2134 20.7961 21.3888 20.7961 18.0365Z" fill="white"/>
<path d="M5.68334 4.97016C6.80729 4.97016 7.75743 5.33516 8.53376 6.06514C9.31009 6.78354 9.69826 7.82638 9.69826 9.19365C9.69826 10.3639 9.26954 11.3199 8.41209 12.0614C7.56624 12.803 6.51761 13.1738 5.26621 13.1738C3.88735 13.1738 2.74023 12.6118 1.82485 11.4879C0.921057 10.3524 0.469161 8.8808 0.469161 7.07322C0.469161 5.86816 0.654554 4.77898 1.02534 3.80566C1.39613 2.82076 1.96969 2.02125 2.74602 1.40714C3.53394 0.793026 4.4667 0.485969 5.5443 0.485969C6.78411 0.485969 7.77481 0.769852 8.51638 1.33762C9.25795 1.90538 9.62874 2.54267 9.62874 3.24948C9.62874 3.66662 9.51287 3.97947 9.28113 4.18804C9.04938 4.38502 8.74812 4.48351 8.37733 4.48351C8.02972 4.48351 7.73425 4.38502 7.49092 4.18804C7.24759 3.97947 7.0622 3.73035 6.93474 3.44067C6.80729 3.15099 6.68562 2.86132 6.56975 2.57164C6.45388 2.28196 6.29746 2.03864 6.10048 1.84166C5.9035 1.63309 5.66017 1.5288 5.37049 1.5288C4.75638 1.5288 4.25234 1.90538 3.85838 2.65854C3.46442 3.4117 3.22688 4.50668 3.14577 5.94348C3.79465 5.2946 4.6405 4.97016 5.68334 4.97016ZM5.57906 12.131C6.06571 12.131 6.44809 11.9456 6.72618 11.5748C7.01585 11.1924 7.16069 10.6768 7.16069 10.0279C7.16069 9.00826 6.95792 8.08129 6.55237 7.24702C6.14682 6.41275 5.61382 5.99562 4.95336 5.99562C4.44352 5.99562 4.0206 6.17522 3.68457 6.53442C3.36013 6.89362 3.18633 7.33392 3.16315 7.85534C3.26744 9.11833 3.52815 10.1496 3.94528 10.9491C4.36242 11.737 4.90701 12.131 5.57906 12.131ZM3.38544 24C3.13052 24 3.00306 23.9015 3.00306 23.7045V23.6524C3.00306 23.5365 3.15949 23.3395 3.47234 23.0614C3.78519 22.7718 3.94161 22.4821 3.94161 22.1924V14.6319C3.94161 14.3885 3.87789 14.2031 3.75043 14.0757C3.62297 13.9366 3.48393 13.8555 3.33329 13.8323C3.19425 13.7976 3.061 13.7454 2.93354 13.6759C2.80608 13.5948 2.74235 13.4905 2.74235 13.3631V13.2762C2.74235 13.1024 2.89878 12.9459 3.21163 12.8069L5.64491 11.7467C6.0157 11.6076 6.30538 11.5903 6.51394 11.6945C6.7341 11.7872 6.84417 11.9495 6.84417 12.1812C6.84417 12.3087 6.77465 12.4998 6.63561 12.7548C6.50815 13.0097 6.44442 13.3109 6.44442 13.6585V22.1924C6.44442 22.3662 6.49656 22.5342 6.60085 22.6965C6.70513 22.8471 6.81521 22.9688 6.93108 23.0614C7.05854 23.1426 7.17441 23.241 7.27869 23.3569C7.38297 23.4612 7.43511 23.5597 7.43511 23.6524V23.7045C7.43511 23.9015 7.31345 24 7.07012 24H3.38544ZM5.69543 27.7523C6.88889 27.7871 7.83903 28.1347 8.54584 28.7951C9.25266 29.444 9.60606 30.2841 9.60606 31.3153C9.60606 32.4045 9.17734 33.3199 8.3199 34.0614C7.46245 34.803 6.33271 35.1738 4.93068 35.1738C3.51706 35.1738 2.43367 34.9247 1.68051 34.4264C0.927348 33.9282 0.550768 33.3662 0.550768 32.7405C0.550768 32.3466 0.655052 32.0337 0.863619 31.802C1.07219 31.5586 1.35607 31.437 1.71527 31.437C1.99336 31.437 2.23669 31.5297 2.44525 31.7151C2.66541 31.9005 2.84501 32.1264 2.98405 32.3929C3.13468 32.6478 3.28532 32.9085 3.43595 33.175C3.58658 33.4415 3.78935 33.6675 4.04427 33.8529C4.29918 34.0383 4.59465 34.131 4.93068 34.131C5.52162 34.131 5.99669 33.905 6.35589 33.4531C6.71509 33.0012 6.89469 32.4219 6.89469 31.7151C6.89469 30.8924 6.69191 30.2493 6.28637 29.7858C5.89241 29.3108 5.36519 29.0732 4.70473 29.0732H4.42664C4.17173 29.0732 3.99792 28.9747 3.90522 28.7777C3.82411 28.5808 3.85888 28.378 4.00951 28.1694L6.54708 24.9019H1.3329C0.985283 24.9019 0.811477 24.7339 0.811477 24.3978V23.1291C0.811477 22.8162 0.97949 22.6598 1.31551 22.6598H8.9456C9.22369 22.6598 9.36273 22.7814 9.36273 23.0248V23.2507C9.36273 23.4477 9.23527 23.6968 8.98036 23.9981L5.69543 27.7523Z" fill="white"/>
</svg>
